<?xml version="1.0" standalone="no"?>
<!DOCTYPE svg PUBLIC "-//W3C//DTD SVG 20010904//EN"
 "http://www.w3.org/TR/2001/REC-SVG-20010904/DTD/svg10.dtd">
<svg version="1.0" xmlns="http://www.w3.org/2000/svg"
 width="565.000000pt" height="565.000000pt" viewBox="0 0 565.000000 565.000000"
 preserveAspectRatio="xMidYMid meet">
<metadata>
Created by potrace 1.11, written by Peter Selinger 2001-2013
</metadata>
<g transform="translate(0.000000,565.000000) scale(0.100000,-0.100000)"
fill="#000000" stroke="none">
<path d="M1411 5583 c-20 -7 -37 -13 -38 -13 -13 -1 -40 -95 -84 -293 -36
-162 -57 -237 -66 -237 -18 0 -341 -108 -375 -126 l-28 -15 0 -304 c0 -167 4
-306 8 -309 4 -2 70 -7 147 -10 203 -8 290 -14 470 -31 55 -6 270 -37 340 -50
83 -16 308 -80 408 -116 139 -51 378 -166 517 -249 58 -35 109 -65 113 -68 8
-4 4 54 -9 123 -9 49 -63 204 -88 254 -32 62 -73 95 -257 207 -175 106 -451
224 -582 250 -11 2 -34 8 -51 13 -30 9 -106 25 -173 36 -18 3 -45 7 -60 9 -54
9 -148 19 -167 18 -42 -2 -1 12 71 25 387 68 780 14 1133 -155 606 -290 1025
-884 1088 -1542 12 -124 5 -346 -13 -455 -19 -110 -59 -275 -76 -306 -8 -15
-14 -15 -74 2 -138 38 -226 40 -345 9 -46 -13 -150 -78 -150 -95 0 -7 7 -40
15 -72 48 -188 6 -417 -100 -540 -48 -56 -141 -101 -225 -109 -36 -4 -66 -7
-67 -8 -1 0 -3 -26 -4 -56 -6 -109 -65 -223 -171 -330 -115 -115 -324 -204
-553 -236 -136 -19 -337 1 -414 40 -21 11 -56 14 -134 12 -145 -4 -301 24
-412 74 -140 63 -175 78 -179 72 -2 -4 -4 -59 -3 -122 l0 -115 66 -37 c62 -34
236 -98 308 -113 36 -7 42 -13 49 -52 3 -15 14 -63 24 -108 10 -45 21 -92 24
-105 3 -14 10 -43 15 -65 5 -22 14 -64 20 -94 6 -30 18 -66 27 -79 33 -50 53
-52 476 -52 363 0 396 1 428 18 37 21 66 67 73 122 3 19 10 58 16 85 6 28 24
113 40 190 16 77 33 141 38 142 4 2 67 23 138 47 125 43 131 44 150 27 117
-102 287 -252 315 -278 60 -56 118 -50 218 21 210 150 518 384 535 408 28 38
26 101 -5 168 -68 144 -168 364 -168 372 0 4 31 50 68 100 38 51 74 103 81
116 11 20 18 23 54 18 23 -3 78 -8 122 -11 44 -4 91 -8 103 -10 45 -7 197 -18
232 -17 44 1 83 42 104 109 8 26 33 104 54 173 176 553 172 532 120 584 -18
17 -120 80 -225 140 -106 59 -196 113 -199 118 -4 6 -8 73 -9 149 l-2 139 213
126 c117 69 221 135 230 145 11 12 18 35 17 58 -1 60 -230 741 -259 771 -27
28 -77 33 -179 19 -33 -4 -89 -11 -125 -15 -36 -3 -76 -8 -90 -9 -14 -2 -54
-7 -90 -10 -36 -4 -67 -9 -69 -11 -2 -2 -26 29 -54 69 -28 40 -67 92 -87 117
-20 25 -35 52 -32 60 2 8 47 113 99 234 80 184 94 224 90 255 -7 45 -12 48
-292 247 -317 225 -357 252 -385 254 -63 5 -57 9 -201 -124 -141 -130 -232
-211 -239 -214 -5 -2 -46 10 -92 26 -46 16 -106 35 -135 41 -54 13 -53 11 -67
86 -17 85 -90 404 -97 422 -4 12 -20 30 -36 40 -25 17 -58 18 -406 18 -281 1
-389 -3 -416 -12z"/>
<path d="M820 4185 c-19 -51 9 -114 46 -103 5 1 34 -1 64 -5 30 -4 82 -9 115
-12 33 -3 71 -7 85 -10 14 -2 45 -7 70 -10 103 -14 180 -27 270 -46 52 -11
102 -22 110 -24 8 -1 35 -8 60 -15 25 -7 52 -14 60 -15 8 -2 44 -13 80 -24 77
-24 80 -25 80 -8 0 19 39 89 66 117 l24 26 -128 33 c-180 47 -261 63 -367 76
-27 3 -63 8 -80 10 -95 13 -272 25 -428 30 -116 4 -118 3 -127 -20z"/>
<path d="M2820 4082 c0 -3 12 -39 26 -80 33 -96 50 -188 53 -282 2 -67 -11
-188 -24 -222 -3 -9 24 -24 87 -47 161 -59 277 -122 342 -187 67 -67 85 -186
37 -238 -12 -12 -21 -32 -21 -44 0 -54 96 -6 149 75 46 69 64 142 64 253 0
182 -76 353 -217 495 -86 86 -147 130 -261 189 -73 37 -235 98 -235 88z"/>
<path d="M823 4017 c-8 -14 -8 -111 1 -125 6 -11 24 -15 226 -52 63 -11 133
-25 155 -30 22 -5 55 -12 73 -15 47 -8 260 -60 362 -88 l85 -24 1 94 1 93 -36
9 c-220 58 -391 88 -726 131 -49 6 -100 13 -112 15 -13 2 -26 -1 -30 -8z"/>
<path d="M2055 4001 c-90 -40 -134 -142 -103 -232 32 -94 104 -137 218 -130
39 2 105 49 130 92 91 163 -76 347 -245 270z m189 -84 c37 -27 12 -96 -35 -97
-25 0 -58 37 -54 61 9 47 51 64 89 36z"/>
<path d="M2419 3843 c-3 -155 -113 -272 -265 -281 -145 -9 -273 88 -301 229
-7 37 -18 49 -45 49 -15 0 -18 -10 -18 -64 0 -133 59 -251 166 -332 35 -27 38
-27 92 -16 208 43 498 28 673 -33 23 -8 45 -15 48 -15 10 0 49 160 60 238 5
42 4 65 -3 71 -6 5 -60 33 -121 63 -99 48 -147 70 -252 114 l-33 14 -1 -37z"/>
<path d="M826 3791 c-12 -19 -14 -102 -4 -137 11 -40 8 -39 188 -94 74 -23
162 -50 196 -60 113 -36 339 -92 435 -110 95 -17 231 -21 244 -8 4 4 -12 31
-36 59 -24 29 -57 79 -74 113 l-30 60 -110 29 c-128 32 -514 110 -705 141 -14
2 -41 7 -61 11 -23 4 -39 3 -43 -4z"/>
<path d="M830 3510 c-20 -13 -25 -194 -7 -270 l13 -55 59 1 c52 0 162 7 335
20 25 2 116 4 203 5 90 1 165 7 176 13 11 6 47 30 80 52 l60 42 -52 7 c-81 11
-176 28 -257 47 -25 5 -52 11 -61 13 -41 8 -161 39 -223 57 -38 11 -76 21 -85
23 -9 2 -57 15 -108 29 -102 29 -111 30 -133 16z"/>
<path d="M2835 3351 c-9 -36 -19 -74 -22 -83 -2 -10 -7 -18 -11 -19 -4 0 -27
-2 -52 -4 -63 -5 -180 -53 -180 -74 0 -11 91 -35 140 -38 25 -1 49 -2 53 -2
18 -2 -5 -20 -32 -26 -20 -4 -28 -11 -25 -23 9 -35 -8 -41 -71 -25 -76 19 -86
29 -39 37 43 9 37 18 -28 39 l-48 16 -53 -49 c-107 -97 -157 -243 -135 -391
13 -82 45 -145 102 -199 77 -74 198 -119 234 -88 9 8 32 20 50 28 34 13 41 35
22 71 -8 15 -7 19 4 19 7 0 24 8 37 19 19 15 21 21 11 33 -16 20 -5 76 17 82
9 3 36 6 61 7 25 1 53 6 62 11 21 10 36 61 32 110 -4 47 -45 171 -90 267 -40
87 -37 92 51 101 46 5 51 8 72 45 29 53 38 119 18 138 -8 8 -48 26 -89 40
l-74 25 -17 -67z"/>
<path d="M2140 3383 c-98 -16 -225 -46 -280 -68 -64 -25 -170 -84 -170 -95 0
-3 51 -5 113 -6 165 -1 264 -17 335 -53 58 -30 107 -92 116 -146 2 -16 5 -32
5 -34 1 -2 15 24 32 58 56 113 186 218 309 251 62 17 70 18 110 20 l35 1 -35
15 c-80 35 -221 57 -385 59 -88 1 -171 0 -185 -2z"/>
<path d="M1260 3157 c-3 -3 -57 -8 -120 -12 -63 -4 -131 -8 -150 -10 -19 -2
-60 -6 -90 -9 -30 -3 -61 -12 -68 -20 -20 -20 -27 -106 -13 -149 l12 -35 187
-1 c199 0 338 -8 482 -26 19 -3 54 -7 76 -10 23 -2 83 -12 135 -21 52 -8 103
-17 114 -19 11 -2 32 -6 48 -10 33 -9 33 -6 6 40 -44 74 -26 182 40 244 l30
28 -32 1 c-90 6 -653 13 -657 9z"/>
<path d="M1994 3096 c-63 -28 -94 -116 -64 -184 22 -49 56 -73 113 -79 108
-11 184 101 134 198 -36 70 -111 96 -183 65z m91 -68 c54 -24 45 -108 -13
-123 -74 -19 -116 75 -54 121 21 17 34 17 67 2z"/>
<path d="M2022 2992 c-16 -5 -15 -39 2 -45 8 -3 22 -4 32 -2 11 2 25 4 32 4
13 1 17 40 5 42 -34 4 -60 5 -71 1z"/>
<path d="M908 2859 c-37 -4 -72 -10 -78 -14 -6 -4 -10 -67 -10 -171 0 -184 4
-194 64 -158 183 109 346 200 454 254 125 62 148 76 120 77 -7 0 -60 4 -118 8
-138 10 -348 12 -432 4z"/>
<path d="M2210 2841 c-13 -17 -38 -38 -56 -47 -33 -18 -33 -18 -18 -53 50
-120 214 -294 214 -226 0 8 -4 15 -9 15 -13 0 -67 109 -85 171 -9 31 -17 82
-17 113 -1 31 -2 56 -3 56 -1 0 -12 -13 -26 -29z"/>
<path d="M1299 2696 c-262 -165 -416 -267 -447 -296 -51 -48 -78 -147 -80
-293 -2 -152 37 -337 73 -351 14 -5 24 11 190 279 128 205 267 416 332 500 5
6 24 30 43 55 19 25 72 89 118 143 73 85 80 97 60 98 -13 0 -32 2 -43 4 -13 3
-101 -47 -246 -139z"/>
<path d="M1647 2767 c-249 -297 -539 -764 -771 -1241 -124 -256 -121 -247
-102 -288 45 -94 189 -184 326 -204 19 -3 42 -7 50 -10 8 -3 77 -7 152 -10
107 -4 139 -2 143 8 2 7 7 92 10 188 4 96 8 193 10 215 2 22 6 78 10 124 4 46
8 93 10 105 2 11 9 59 15 106 6 47 13 101 16 120 2 19 7 46 10 60 3 14 8 36
10 50 14 83 30 152 65 290 22 85 44 166 49 180 5 14 25 72 46 130 20 58 45
124 55 147 25 55 24 62 -8 69 -16 3 -33 7 -40 9 -7 2 -32 -19 -56 -48z"/>
<path d="M1816 2739 c-20 -47 -42 -112 -76 -224 -8 -28 -23 -101 -36 -171 -3
-16 -9 -47 -14 -69 -5 -22 -12 -67 -15 -100 -4 -33 -9 -62 -10 -65 -2 -3 -6
-45 -10 -95 -4 -49 -9 -99 -11 -110 -24 -125 -22 -922 2 -945 20 -20 254 -30
364 -16 267 34 478 170 539 347 40 116 44 107 -64 178 -118 77 -230 187 -301
297 -56 85 -113 201 -134 270 -30 101 -41 142 -46 174 -3 19 -7 41 -9 48 -12
34 -20 181 -18 333 l1 166 -57 13 c-31 7 -62 15 -69 17 -7 3 -21 -15 -36 -48z"/>
<path d="M2009 2713 c-5 -139 3 -225 37 -361 77 -313 253 -585 474 -733 121
-81 232 -114 287 -85 42 21 109 100 143 167 65 128 91 301 56 382 -14 35 -15
36 -43 22 -85 -42 -232 -51 -346 -21 -206 56 -417 245 -521 467 -32 68 -63
171 -58 192 1 4 -5 7 -13 7 -10 0 -15 -11 -16 -37z"/>
<path d="M2071 2716 c49 -195 199 -390 383 -494 157 -90 305 -95 433 -14 53
33 56 52 8 52 -45 0 -38 -1 -92 15 -25 8 -69 30 -97 48 -43 30 -60 35 -111 36
-133 1 -222 41 -335 147 -52 49 -75 82 -110 152 -35 72 -47 90 -65 90 -20 0
-21 -4 -14 -32z"/>
</g>
</svg>
